PathFileType	4	(X/Y/Z)	 3.0Hz3min.trc
DataRate	CameraRate	NumFrames	NumMarkers	Units	OrigDataRate	OrigDataStartFrame	OrigNumFrames
200	200	8	43	m	200	125	998
Frame#	Time	C7			LSH			RSH			MAN			RASI			LASI			HIPR			HIPL			RPSI			LPSI			COX			RTHI1			RTHI2			RTHI3			RTHI4			RLKN			RMKN			RSHA1			RSHA2			RSHA3			RSHA4			RLMAL			RMMAL			RHEEL			RMET5			RMET1			RTOE			LTHI1			LTHI2			LTHI3			LTHI4			LLKN			LMKN			LSHA1			LSHA2			LSHA3			LSHA4			LLMAL			LMMAL			LHEEL			LMET5			LMET1			LTOE			
		X1	Y1	Z1	X2	Y2	Z2	X3	Y3	Z3	X4	Y4	Z4	X5	Y5	Z5	X6	Y6	Z6	X7	Y7	Z7	X8	Y8	Z8	X9	Y9	Z9	X10	Y10	Z10	X11	Y11	Z11	X12	Y12	Z12	X13	Y13	Z13	X14	Y14	Z14	X15	Y15	Z15	X16	Y16	Z16	X17	Y17	Z17	X18	Y18	Z18	X19	Y19	Z19	X20	Y20	Z20	X21	Y21	Z21	X22	Y22	Z22	X23	Y23	Z23	X24	Y24	Z24	X25	Y25	Z25	X26	Y26	Z26	X27	Y27	Z27	X28	Y28	Z28	X29	Y29	Z29	X30	Y30	Z30	X31	Y31	Z31	X32	Y32	Z32	X33	Y33	Z33	X34	Y34	Z34	X35	Y35	Z35	X36	Y36	Z36	X37	Y37	Z37	X38	Y38	Z38	X39	Y39	Z39	X40	Y40	Z40	X41	Y41	Z41	X42	Y42	Z42	X43	Y43	Z43	
125	0.6250	-0.240566	1.347313	-0.541318	-0.166339	1.327245	-0.694803	-0.174684	1.319963	-0.377883	-0.115086	1.282067	-0.534710	-0.114022	0.850378	-0.418960	-0.122669	0.854870	-0.655221	-0.179465	0.919971	-0.387524	-0.195996	0.899544	-0.685502	-0.284023	0.896873	-0.479927	-0.289628	0.890864	-0.563534	-0.289259	0.894224	-0.526358	-0.237881	0.680621	-0.356095	-0.220127	0.623849	-0.348321	-0.158920	0.639921	-0.335569	-0.168228	0.700645	-0.342733	-0.197961	0.442604	-0.352896	-0.173470	0.415103	-0.478878	-0.294135	0.326451	-0.346462	-0.303924	0.286838	-0.360601	-0.241203	0.309985	-0.334746	-0.247838	0.271535	-0.343561	-0.317201	0.089571	-0.377110	-0.285738	0.094789	-0.454602	-0.368821	0.081077	-0.428668	-0.235204	0.031818	-0.332693	-0.181312	0.041103	-0.396325	-0.158937	0.033300	-0.388363	-0.234688	0.666508	-0.715272	-0.216412	0.608108	-0.723776	-0.153900	0.622968	-0.733992	-0.164919	0.681641	-0.727738	-0.202640	0.432102	-0.726140	-0.163541	0.409710	-0.609113	-0.303511	0.289192	-0.722764	-0.314802	0.251485	-0.713922	-0.256912	0.236521	-0.728431	-0.252432	0.279456	-0.737329	-0.313631	0.090570	-0.707444	-0.286391	0.103039	-0.628875	-0.369463	0.079897	-0.649828	-0.241336	0.034595	-0.743034	-0.186420	0.045627	-0.680824	-0.161805	0.034678	-0.688584	
126	0.6300	-0.240435	1.349362	-0.541403	-0.166218	1.329141	-0.694958	-0.174338	1.321764	-0.377982	-0.115062	1.284015	-0.534908	-0.113967	0.853135	-0.419118	-0.122717	0.857325	-0.655387	-0.179363	0.922948	-0.387901	-0.196046	0.902274	-0.685513	-0.283773	0.899289	-0.480138	-0.289466	0.893070	-0.563686	-0.289084	0.896512	-0.526483	-0.237970	0.682696	-0.356194	-0.220218	0.625900	-0.348559	-0.158979	0.641895	-0.335867	-0.168248	0.702638	-0.342967	-0.198412	0.444686	-0.353194	-0.174411	0.417459	-0.479544	-0.294379	0.328444	-0.346977	-0.304027	0.288801	-0.360986	-0.241465	0.312155	-0.335000	-0.247968	0.273647	-0.343798	-0.316606	0.091067	-0.377164	-0.284908	0.096233	-0.454517	-0.367953	0.082846	-0.428810	-0.234925	0.032104	-0.332876	-0.181108	0.041046	-0.396339	-0.158849	0.033283	-0.388363	-0.234784	0.668379	-0.715231	-0.216528	0.609960	-0.723633	-0.153997	0.624779	-0.733810	-0.164996	0.683465	-0.727633	-0.202755	0.433985	-0.725787	-0.164571	0.412111	-0.608231	-0.303531	0.290881	-0.722389	-0.314723	0.253153	-0.713552	-0.256825	0.238309	-0.728162	-0.252452	0.281258	-0.737061	-0.312958	0.091952	-0.707492	-0.285628	0.104384	-0.628951	-0.368634	0.081619	-0.649802	-0.241082	0.034879	-0.742885	-0.186142	0.045537	-0.680824	-0.161674	0.034689	-0.688606	
127	0.6350	-0.240408	1.351821	-0.541585	-0.166117	1.331530	-0.695071	-0.174069	1.324064	-0.378110	-0.115125	1.286449	-0.535110	-0.113855	0.856344	-0.419387	-0.122672	0.860200	-0.655472	-0.179094	0.926426	-0.388327	-0.195870	0.905512	-0.685525	-0.283381	0.902155	-0.480314	-0.289151	0.895721	-0.563869	-0.288779	0.899240	-0.526606	-0.238016	0.685144	-0.356396	-0.220321	0.628330	-0.348844	-0.159054	0.644220	-0.336178	-0.168247	0.704985	-0.343212	-0.199006	0.447151	-0.353511	-0.175095	0.420022	-0.480073	-0.294674	0.330779	-0.347545	-0.304159	0.291097	-0.361404	-0.241787	0.314705	-0.335247	-0.248125	0.276143	-0.343985	-0.315873	0.092846	-0.377148	-0.283921	0.097981	-0.454368	-0.366908	0.084953	-0.428910	-0.234609	0.032449	-0.333073	-0.180880	0.040983	-0.396341	-0.158753	0.033273	-0.388349	-0.234899	0.670671	-0.715100	-0.216689	0.612228	-0.723442	-0.154140	0.627006	-0.733608	-0.165104	0.685711	-0.727499	-0.203067	0.436288	-0.725372	-0.165564	0.414814	-0.607412	-0.303620	0.292870	-0.721975	-0.314673	0.255109	-0.713153	-0.256769	0.240441	-0.727907	-0.252539	0.283406	-0.736791	-0.312185	0.093604	-0.707601	-0.284712	0.106000	-0.629091	-0.367645	0.083681	-0.649831	-0.240752	0.035238	-0.742717	-0.185837	0.045432	-0.680841	-0.161544	0.034700	-0.688623	
128	0.6400	-0.240432	1.354653	-0.541787	-0.166034	1.334374	-0.695137	-0.173877	1.326825	-0.378283	-0.115251	1.289304	-0.535309	-0.113685	0.859901	-0.419748	-0.122540	0.863416	-0.655489	-0.178686	0.930259	-0.388776	-0.195508	0.909118	-0.685548	-0.282870	0.905396	-0.480457	-0.288721	0.898764	-0.564078	-0.288375	0.902334	-0.526723	-0.238014	0.687936	-0.356748	-0.220453	0.631108	-0.349195	-0.159169	0.646862	-0.336496	-0.168230	0.707651	-0.343461	-0.199708	0.449965	-0.353849	-0.175507	0.422783	-0.480492	-0.295009	0.333423	-0.348141	-0.304310	0.293685	-0.361842	-0.242159	0.317577	-0.335515	-0.248308	0.278981	-0.344124	-0.315024	0.094877	-0.377080	-0.282788	0.100014	-0.454147	-0.365699	0.087361	-0.428949	-0.234221	0.032858	-0.333252	-0.180641	0.040927	-0.396365	-0.158658	0.033264	-0.388349	-0.235034	0.673360	-0.714886	-0.216894	0.614890	-0.723213	-0.154329	0.629616	-0.733386	-0.165246	0.688346	-0.727344	-0.203592	0.438980	-0.724915	-0.166494	0.417777	-0.606689	-0.303763	0.295126	-0.721544	-0.314652	0.257322	-0.712740	-0.256729	0.242895	-0.727679	-0.252682	0.285872	-0.736538	-0.311307	0.095507	-0.707770	-0.283650	0.107891	-0.629298	-0.366493	0.086045	-0.649913	-0.240335	0.035672	-0.742545	-0.185511	0.045306	-0.680886	-0.161422	0.034709	-0.688626	
129	0.6450	-0.240490	1.357812	-0.542000	-0.165963	1.337628	-0.695152	-0.173751	1.330002	-0.378522	-0.115434	1.292505	-0.535500	-0.113457	0.863710	-0.420181	-0.122335	0.866903	-0.655460	-0.178165	0.934324	-0.389225	-0.194996	0.912990	-0.685583	-0.282268	0.908949	-0.480575	-0.288206	0.902142	-0.564297	-0.287894	0.905735	-0.526827	-0.237973	0.691037	-0.357253	-0.220634	0.634199	-0.349611	-0.159340	0.649787	-0.336820	-0.168212	0.710594	-0.343705	-0.200499	0.453090	-0.354193	-0.175658	0.425730	-0.480826	-0.295381	0.336347	-0.348752	-0.304460	0.296534	-0.362295	-0.242557	0.320760	-0.335750	-0.248512	0.282112	-0.344211	-0.314042	0.097123	-0.376935	-0.281511	0.102296	-0.453845	-0.364341	0.090026	-0.428931	-0.233724	0.033341	-0.333443	-0.180400	0.040849	-0.396405	-0.158576	0.033259	-0.388361	-0.235190	0.676407	-0.714613	-0.217143	0.617913	-0.722953	-0.154564	0.632573	-0.733159	-0.165419	0.691329	-0.727178	-0.204316	0.442021	-0.724439	-0.167340	0.420972	-0.606081	-0.303931	0.297636	-0.721118	-0.314647	0.259770	-0.712334	-0.256694	0.245635	-0.727491	-0.252865	0.288625	-0.736316	-0.310320	0.097638	-0.708004	-0.282433	0.110035	-0.629581	-0.365182	0.088674	-0.650045	-0.239818	0.036172	-0.742360	-0.185161	0.045164	-0.680951	-0.161313	0.034709	-0.688631	
130	0.6500	-0.240633	1.361273	-0.542324	-0.165896	1.341241	-0.695108	-0.173683	1.333541	-0.378842	-0.115669	1.296000	-0.535682	-0.113174	0.867681	-0.420660	-0.122074	0.870586	-0.655399	-0.177548	0.938532	-0.389662	-0.194366	0.917061	-0.685629	-0.281597	0.912756	-0.480673	-0.287620	0.905800	-0.564511	-0.287355	0.909419	-0.526925	-0.237925	0.694421	-0.357862	-0.220866	0.637557	-0.350103	-0.159571	0.652946	-0.337146	-0.168205	0.713779	-0.343944	-0.201347	0.456491	-0.354537	-0.175593	0.428868	-0.481112	-0.295762	0.339510	-0.349349	-0.304617	0.299588	-0.362777	-0.242970	0.324207	-0.335952	-0.248723	0.285498	-0.344246	-0.312958	0.099518	-0.376733	-0.280090	0.104788	-0.453461	-0.362844	0.092891	-0.428861	-0.233179	0.033862	-0.333645	-0.180147	0.040771	-0.396426	-0.158494	0.033269	-0.388359	-0.235376	0.679775	-0.714335	-0.217432	0.621246	-0.722678	-0.154840	0.635821	-0.732924	-0.165611	0.694600	-0.727000	-0.205225	0.445373	-0.723958	-0.168082	0.424368	-0.605575	-0.304088	0.300361	-0.720693	-0.314588	0.262418	-0.711886	-0.256642	0.248636	-0.727347	-0.253064	0.291633	-0.736139	-0.309216	0.099976	-0.708299	-0.281063	0.112412	-0.629939	-0.363708	0.091545	-0.650228	-0.239228	0.036779	-0.742205	-0.184787	0.045022	-0.681051	-0.161215	0.034707	-0.688633	
131	0.6550	-0.240856	1.365022	-0.542727	-0.165844	1.345149	-0.695008	-0.173662	1.337392	-0.379242	-0.115957	1.299742	-0.535855	-0.112847	0.871736	-0.421163	-0.121780	0.874409	-0.655310	-0.176852	0.942825	-0.390075	-0.193651	0.921284	-0.685682	-0.280872	0.916768	-0.480748	-0.286975	0.909697	-0.564712	-0.286779	0.913353	-0.527016	-0.237880	0.698039	-0.358546	-0.221149	0.641142	-0.350639	-0.159853	0.656302	-0.337465	-0.168216	0.717165	-0.344185	-0.202242	0.460122	-0.354905	-0.175368	0.432187	-0.481392	-0.296131	0.342883	-0.349917	-0.304764	0.302820	-0.363267	-0.243381	0.327866	-0.336117	-0.248924	0.289102	-0.344227	-0.311764	0.102053	-0.376459	-0.278525	0.107444	-0.453006	-0.361211	0.095914	-0.428754	-0.232593	0.034407	-0.333808	-0.179892	0.040692	-0.396441	-0.158421	0.033285	-0.388355	-0.235586	0.683407	-0.714063	-0.217763	0.624837	-0.722397	-0.155154	0.639302	-0.732693	-0.165815	0.698104	-0.726825	-0.206281	0.448996	-0.723481	-0.168718	0.427941	-0.605139	-0.304222	0.303284	-0.720293	-0.314454	0.265230	-0.711403	-0.256544	0.251863	-0.727250	-0.253242	0.294869	-0.736016	-0.307990	0.102496	-0.708653	-0.279541	0.114995	-0.630384	-0.362059	0.094606	-0.650411	-0.238525	0.037453	-0.742068	-0.184401	0.044891	-0.681188	-0.161123	0.034710	-0.688630	
132	0.6600	-0.241014	1.368957	-0.543035	-0.165780	1.349290	-0.694821	-0.173688	1.341494	-0.379708	-0.116296	1.303681	-0.536020	-0.112487	0.875817	-0.421670	-0.121479	0.878329	-0.655202	-0.176096	0.947157	-0.390463	-0.192896	0.925619	-0.685736	-0.280117	0.920949	-0.480813	-0.286290	0.913797	-0.564893	-0.286189	0.917494	-0.527096	-0.237875	0.701859	-0.359231	-0.221482	0.644907	-0.351211	-0.160183	0.659819	-0.337779	-0.168248	0.720706	-0.344432	-0.203168	0.463937	-0.355276	-0.175054	0.435688	-0.481700	-0.296490	0.346412	-0.350458	-0.304879	0.306195	-0.363753	-0.243784	0.331698	-0.336244	-0.249100	0.292881	-0.344163	-0.310490	0.104703	-0.376176	-0.276801	0.110255	-0.452482	-0.359451	0.099054	-0.428627	-0.231941	0.034966	-0.333890	-0.179633	0.040642	-0.396445	-0.158369	0.033296	-0.388367	-0.235814	0.687256	-0.713807	-0.218133	0.628643	-0.722122	-0.155502	0.642962	-0.732474	-0.166025	0.701790	-0.726662	-0.207448	0.452847	-0.723003	-0.169308	0.431676	-0.604741	-0.304314	0.306370	-0.719921	-0.314225	0.268181	-0.710884	-0.256383	0.255277	-0.727201	-0.253393	0.298287	-0.735947	-0.306642	0.105161	-0.709053	-0.277870	0.117729	-0.630903	-0.360239	0.097816	-0.650602	-0.237732	0.038182	-0.741963	-0.183997	0.044757	-0.681351	-0.161038	0.034714	-0.688628	
